<svg xmlns="http://www.w3.org/2000/svg" viewBox="0 0 512 512">
  <defs>
    <linearGradient id="g" x1="0" y1="0" x2="1" y2="1">
      <stop offset="0" stop-color="#0ea5e9"/>
      <stop offset="1" stop-color="#0369a1"/>
    </linearGradient>
  </defs>
  <rect width="512" height="512" rx="96" fill="url(#g)"/>
  <path d="M64 336c48-32 80-32 128 0s80 32 128 0 80-32 128 0v64c-48 32-80 32-128 0s-80-32-128 0-80 32-128 0z" fill="#fff" opacity=".95"/>
  <path d="M64 240c48-32 80-32 128 0s80 32 128 0 80-32 128 0v48c-48 32-80 32-128 0s-80-32-128 0-80 32-128 0z" fill="#fff" opacity=".55"/>
  <text x="256" y="160" font-family="system-ui,-apple-system,sans-serif" font-size="96" font-weight="800" fill="#fff" text-anchor="middle">B</text>
</svg>
